<?xml version="1.0" standalone="no"?>
<!DOCTYPE svg PUBLIC "-//W3C//DTD SVG 20010904//EN"
 "http://www.w3.org/TR/2001/REC-SVG-20010904/DTD/svg10.dtd">
<svg version="1.0" xmlns="http://www.w3.org/2000/svg"
 width="340.000000pt" height="340.000000pt" viewBox="0 0 340.000000 340.000000"
 preserveAspectRatio="xMidYMid meet">
<metadata>
Created by potrace 1.14, written by Peter Selinger 2001-2017
</metadata>
<g transform="translate(0.000000,340.000000) scale(0.100000,-0.100000)"
fill="#000000" stroke="none">
<path d="M110 1700 l0 -1700 1595 0 1595 0 0 1700 0 1700 -1595 0 -1595 0 0
-1700z m1633 1363 c-15 -21 -162 -183 -326 -361 l-298 -322 188 -203 c103
-111 191 -203 195 -205 9 -4 198 -211 255 -279 l42 -51 -195 -7 -196 -7 -101
108 c-56 60 -172 181 -258 269 -86 88 -197 204 -248 258 -91 99 -91 99 -74
122 10 13 157 179 328 369 l310 345 203 1 203 0 -28 -37z m223 -885 c60 -68
146 -161 191 -208 175 -183 351 -385 344 -397 -8 -14 -530 -572 -626 -668
l-70 -70 -187 3 c-104 2 -188 7 -188 11 0 5 60 73 133 152 72 80 152 169 177
198 25 30 116 131 202 225 l157 171 -42 45 c-43 45 -262 281 -347 375 -48 53
-158 172 -224 243 l-40 42 205 0 206 0 109 -122z m-1256 -1647 c0 -5 -9 -7
-20 -4 -13 4 -20 0 -20 -10 0 -8 11 -18 25 -21 14 -4 25 -12 25 -20 0 -21 -27
-38 -50 -31 -29 9 -25 23 5 17 14 -2 25 0 25 5 0 5 -11 15 -25 21 -24 11 -32
31 -18 45 10 10 53 8 53 -2z m144 -31 c18 -45 21 -75 5 -47 -5 9 -19 17 -31
17 -11 0 -27 -8 -34 -17 -21 -28 -17 2 6 47 11 22 24 40 29 40 5 0 16 -18 25
-40z m130 8 l26 -33 0 33 c0 17 5 32 10 32 12 0 13 -87 1 -94 -4 -3 -20 11
-35 32 l-26 37 0 -38 c0 -23 -4 -36 -10 -32 -13 8 -13 95 -1 95 5 0 21 -15 35
-32z m196 22 c0 -5 -9 -9 -21 -7 -25 2 -45 -23 -36 -47 8 -20 47 -21 47 -1 0
8 5 15 10 15 15 0 12 -26 -5 -40 -12 -10 -21 -10 -41 -2 -31 15 -40 37 -26 68
9 18 19 24 42 24 16 0 30 -4 30 -10z m126 -30 c17 0 24 5 24 20 0 11 5 20 10
20 6 0 10 -22 10 -50 0 -27 -4 -50 -10 -50 -5 0 -10 9 -10 20 0 15 -7 20 -25
20 -19 0 -25 -5 -25 -21 0 -11 -4 -18 -9 -15 -5 4 -8 25 -6 49 3 51 6 59 12
30 3 -16 11 -23 29 -23z m170 31 c-38 -8 -47 -31 -12 -31 14 0 26 -4 26 -10 0
-5 -11 -10 -25 -10 -14 0 -25 -4 -25 -10 0 -5 14 -10 30 -10 17 0 30 -4 30
-10 0 -5 -16 -10 -35 -10 l-35 0 0 50 0 50 38 -1 c35 -1 35 -2 8 -8z m114 -31
c0 -36 3 -40 25 -40 14 0 25 -4 25 -10 0 -5 -16 -10 -35 -10 l-35 0 0 50 c0
28 5 50 10 50 6 0 10 -18 10 -40z m276 29 c5 -8 0 -10 -17 -6 -33 8 -51 -5
-47 -34 4 -28 48 -41 48 -15 0 9 5 16 10 16 6 0 10 -9 10 -20 0 -13 -9 -22
-25 -26 -47 -12 -86 51 -53 84 15 15 65 16 74 1z m158 -5 c9 -8 16 -22 16 -30
0 -19 -36 -54 -55 -54 -16 0 -55 34 -55 48 0 4 7 18 16 30 18 26 56 29 78 6z
m127 -16 l28 -33 1 33 c0 17 5 32 10 32 11 0 14 -83 3 -94 -4 -4 -20 8 -35 26
l-27 33 -1 -27 c0 -15 -4 -30 -10 -33 -6 -4 -10 13 -10 44 0 28 3 51 7 51 3 0
19 -15 34 -32z m189 25 c0 -3 -11 -21 -26 -40 l-25 -33 30 0 c17 0 31 -4 31
-10 0 -5 -18 -10 -40 -10 -47 0 -49 9 -14 55 l25 34 -28 4 c-23 3 -22 4 10 6
20 0 37 -2 37 -6z m133 -20 c8 -16 18 -39 22 -53 7 -24 7 -24 -12 -7 -25 22
-49 22 -62 0 -5 -10 -12 -15 -16 -12 -7 8 36 99 47 99 4 0 14 -12 21 -27z
m117 -13 c0 -36 2 -40 26 -40 14 0 23 -4 19 -10 -3 -5 -19 -10 -36 -10 -28 0
-29 1 -29 50 0 28 5 50 10 50 6 0 10 -18 10 -40z m158 33 c-32 -5 -38 -33 -8
-33 11 0 20 -4 20 -10 0 -5 -9 -10 -20 -10 -11 0 -20 -4 -20 -10 0 -5 11 -10
25 -10 14 0 25 -4 25 -10 0 -5 -16 -10 -35 -10 l-35 0 0 50 0 50 38 -1 c30 -2
32 -3 10 -6z m162 0 c0 -3 -11 -21 -26 -40 l-25 -33 31 0 c18 0 29 -4 25 -10
-8 -13 -75 -13 -75 1 0 6 12 25 26 44 l25 34 -28 4 c-23 3 -22 4 10 6 20 0 37
-2 37 -6z m-899 -212 c35 -36 37 -61 6 -97 -33 -37 -81 -37 -114 0 -12 15 -23
36 -23 47 0 27 53 79 80 79 12 0 35 -13 51 -29z m-894 -3 c30 -28 29 -63 -2
-93 -19 -20 -34 -25 -75 -25 l-50 0 0 70 0 70 52 0 c39 0 57 -5 75 -22z m193
7 c0 -10 -11 -15 -35 -15 -44 0 -46 -18 -3 -22 43 -4 48 -26 6 -30 -45 -4 -42
-22 5 -26 24 -2 37 -8 37 -18 0 -11 -14 -14 -60 -14 l-60 0 0 70 0 70 55 0
c42 0 55 -3 55 -15z m109 -27 l19 -43 17 43 c12 28 23 42 36 42 25 0 24 -7 -7
-79 -21 -48 -31 -61 -49 -61 -17 0 -27 13 -48 65 -32 78 -32 75 -7 75 15 0 26
-12 39 -42z m252 27 c0 -5 -11 -11 -23 -13 -46 -6 -54 -15 -19 -21 46 -8 52
-29 9 -33 -45 -4 -42 -22 5 -26 24 -2 37 -8 37 -18 0 -11 -14 -14 -60 -14
l-60 0 0 70 0 71 55 -3 c30 -2 55 -7 56 -13z m99 -40 c0 -54 0 -55 30 -55 20
0 30 -5 30 -16 0 -12 -10 -14 -47 -12 l-48 3 -3 53 c-4 62 1 82 23 82 12 0 15
-12 15 -55z m446 30 c15 -23 15 -27 0 -50 -11 -17 -26 -25 -46 -25 -24 0 -30
-4 -30 -21 0 -15 -5 -20 -22 -17 -21 3 -23 9 -26 71 l-3 67 55 0 c48 0 58 -3
72 -25z m184 10 c0 -10 -11 -15 -35 -15 -19 0 -35 -4 -35 -10 0 -5 14 -10 30
-10 20 0 30 -5 30 -15 0 -10 -10 -15 -30 -15 -20 0 -30 -5 -30 -15 0 -10 11
-15 35 -15 24 0 35 -5 35 -15 0 -12 -13 -15 -60 -15 l-60 0 0 70 0 70 60 0
c47 0 60 -3 60 -15z m176 -10 c15 -23 15 -27 1 -49 -14 -21 -14 -26 -1 -45 14
-20 14 -21 -10 -21 -15 0 -30 8 -36 20 -6 11 -15 20 -20 20 -6 0 -10 -9 -10
-20 0 -13 -7 -20 -20 -20 -18 0 -20 7 -20 70 l0 70 50 0 c42 0 52 -4 66 -25z"/>
<path d="M816 505 c-9 -23 -8 -25 9 -25 17 0 19 9 6 28 -7 11 -10 10 -15 -3z"/>
<path d="M1964 516 c-15 -12 -17 -18 -8 -33 15 -24 58 -24 62 0 4 18 -14 47
-27 47 -4 0 -16 -6 -27 -14z"/>
<path d="M2445 507 c-8 -19 -2 -31 13 -26 5 2 6 13 2 24 -7 19 -8 19 -15 2z"/>
<path d="M1934 296 c-3 -8 -4 -25 -2 -38 2 -17 9 -23 28 -23 22 0 25 4 25 35
0 29 -4 36 -23 38 -13 2 -24 -3 -28 -12z"/>
<path d="M1039 305 c-6 -36 0 -70 13 -73 16 -3 48 22 48 38 0 22 -57 55 -61
35z"/>
<path d="M2140 290 c0 -15 5 -20 18 -18 9 2 17 10 17 18 0 8 -8 16 -17 18 -13
2 -18 -3 -18 -18z"/>
<path d="M2500 290 c0 -15 5 -20 18 -18 9 2 17 10 17 18 0 8 -8 16 -17 18 -13
2 -18 -3 -18 -18z"/>
</g>
</svg>
